<svg width="32" height="32" viewBox="0 0 32 32" fill="none" xmlns="http://www.w3.org/2000/svg">
  <circle cx="16" cy="16" r="15" fill="#3D4432" stroke="#2a2f24" stroke-width="2"/>
  <rect x="4" y="6" width="24" height="20" rx="2" fill="#4a5238" stroke="#2a2f24" stroke-width="0.5"/>
  <rect x="5.5" y="8" width="1.5" height="1.5" rx="0.3" fill="#3D4432"/>
  <rect x="5.5" y="11" width="1.5" height="1.5" rx="0.3" fill="#3D4432"/>
  <rect x="5.5" y="14" width="1.5" height="1.5" rx="0.3" fill="#3D4432"/>
  <rect x="5.5" y="17" width="1.5" height="1.5" rx="0.3" fill="#3D4432"/>
  <rect x="5.5" y="20" width="1.5" height="1.5" rx="0.3" fill="#3D4432"/>
  <rect x="5.5" y="23" width="1.5" height="1.5" rx="0.3" fill="#3D4432"/>
  <rect x="25" y="8" width="1.5" height="1.5" rx="0.3" fill="#3D4432"/>
  <rect x="25" y="11" width="1.5" height="1.5" rx="0.3" fill="#3D4432"/>
  <rect x="25" y="14" width="1.5" height="1.5" rx="0.3" fill="#3D4432"/>
  <rect x="25" y="17" width="1.5" height="1.5" rx="0.3" fill="#3D4432"/>
  <rect x="25" y="20" width="1.5" height="1.5" rx="0.3" fill="#3D4432"/>
  <rect x="25" y="23" width="1.5" height="1.5" rx="0.3" fill="#3D4432"/>
  <rect x="8" y="9" width="16" height="12" rx="1" fill="#1a1d16" stroke="#2a2f24" stroke-width="0.5"/>
  <rect x="8" y="9" width="16" height="3" fill="#ffffff"/>
  <path d="M8 9 L12 9 L10 12 L8 12 Z" fill="#3D4432"/>
  <path d="M14 9 L18 9 L16 12 L14 12 Z" fill="#3D4432"/>
  <path d="M20 9 L24 9 L22 12 L20 12 Z" fill="#3D4432"/>
  <circle cx="16" cy="17" r="4.5" fill="rgba(255, 255, 255, 0.15)" stroke="#ffffff" stroke-width="0.5"/>
  <polygon points="14,14.5 14,19.5 19,17" fill="#ffffff"/>
  <text x="16" y="28" text-anchor="middle" font-size="4" font-weight="bold" fill="#ffffff" opacity="0.8">MF</text>
  <defs>
    <radialGradient id="depthGradient" cx="0.3" cy="0.3" r="0.8">
      <stop offset="0%" stop-color="rgba(255, 255, 255, 0.1)"/>
      <stop offset="100%" stop-color="rgba(0, 0, 0, 0.2)"/>
    </radialGradient>
  </defs>
  <circle cx="16" cy="16" r="15" fill="url(#depthGradient)" pointer-events="none"/>
</svg>